# xmcd
#
# Track frame offsets:
#	150
#	12380
#	20973
#	40449
#	44090
#	58815
#	73947
#	79895
#	101870
#	110404
#	124004
#	138251
#	158878
#	170902
#
# Disc length: 2364 seconds
#
# Revision: 1
# Processed by: cddbd v1.5.2PL0 Copyright (c) Steve Scherf et al.
# Submitted via: audiograbber 1.83.01
#
DISCID=d7093a0e
DTITLE=SitDown Tracy - Roaring Noon
DYEAR=2009
DGENRE=Country
TTITLE0=Backfire
TTITLE1=Make It a Knife
TTITLE2=Process of Elimination
TTITLE3=Say Goodbye to Your Fish
TTITLE4=Season for Slaughter
TTITLE5=Sunday Night Sex Show
TTITLE6=Greasy Etheral
TTITLE7=Troubadour
TTITLE8=Angles
TTITLE9=Under the Gun
TTITLE10=Voodoo Damage
TTITLE11=Fresh Out
TTITLE12=On the Tiles
TTITLE13=Haunt Me
EXTD=
EXTT0=
EXTT1=
EXTT2=
EXTT3=
EXTT4=
EXTT5=
EXTT6=
EXTT7=
EXTT8=
EXTT9=
EXTT10=
EXTT11=
EXTT12=
EXTT13=
PLAYORDER=
